<svg xmlns="http://www.w3.org/2000/svg" viewBox="0 0 16 14" shape-rendering="crispEdges">
  <g fill="#0a0f22">
    <rect x="7" y="0" width="2" height="1"/>
    <rect x="5" y="1" width="1" height="1"/><rect x="10" y="1" width="1" height="1"/>
    <rect x="4" y="2" width="1" height="1"/><rect x="11" y="2" width="1" height="1"/>
    <rect x="3" y="3" width="1" height="1"/><rect x="12" y="3" width="1" height="1"/>
    <rect x="2" y="4" width="1" height="1"/><rect x="13" y="4" width="1" height="1"/>
    <rect x="1" y="5" width="1" height="1"/><rect x="14" y="5" width="1" height="1"/>
    <rect x="0" y="6" width="1" height="6"/><rect x="15" y="6" width="1" height="6"/>
    <rect x="0" y="12" width="16" height="1"/>
  </g>
  <g fill="#fffaf0">
    <rect x="7" y="1" width="2" height="1"/>
    <rect x="6" y="2" width="4" height="1"/>
    <rect x="5" y="3" width="6" height="1"/>
    <rect x="4" y="4" width="8" height="1"/>
    <rect x="3" y="5" width="10" height="1"/>
    <rect x="2" y="6" width="12" height="1"/>
    <rect x="1" y="7" width="14" height="1"/>
    <rect x="1" y="8" width="14" height="1"/>
  </g>
  <g fill="#f2e2c6">
    <rect x="12" y="7" width="2" height="1"/>
    <rect x="13" y="8" width="1" height="1"/>
  </g>
  <g fill="#ffb8d4">
    <rect x="3" y="7" width="1" height="1"/>
    <rect x="12" y="7" width="1" height="1"/>
  </g>
  <g fill="#0a0f22">
    <rect x="5" y="7" width="1" height="1"/>
    <rect x="10" y="7" width="1" height="1"/>
    <rect x="7" y="8" width="1" height="1"/>
    <rect x="8" y="8" width="1" height="1"/>
  </g>
  <g fill="#162318">
    <rect x="1" y="9" width="14" height="3"/>
  </g>
  <g fill="#2a3f28">
    <rect x="1" y="9" width="14" height="1"/>
    <rect x="1" y="11" width="14" height="1" opacity=".5"/>
  </g>
  <g fill="#fffaf0">
    <rect x="3" y="10" width="1" height="1"/>
    <rect x="8" y="11" width="1" height="1"/>
    <rect x="12" y="10" width="1" height="1"/>
  </g>
</svg>
